<?xml version="1.0" encoding="iso-8859-1"?>
<!-- Generator: Adobe Illustrator 19.1.0, SVG Export Plug-In . SVG Version: 6.00 Build 0)  -->
<svg xmlns="http://www.w3.org/2000/svg" xmlns:xlink="http://www.w3.org/1999/xlink" version="1.1" id="Capa_1" x="0px" y="0px" viewBox="0 0 63 63" style="enable-background:new 0 0 63 63;" xml:space="preserve" width="512px" height="512px">
<g>
	<g id="group-78svg">
		<path id="path-1_74_" d="M42.073,63h-22C19.245,63,19,62.328,19,61.5V26.668c0-0.445,0.198-0.868,0.541-1.153L27,19.312V1.5    C27,0.672,27.245,0,28.073,0h6C34.901,0,36,0.672,36,1.5v17.812l7.459,6.203C43.802,25.8,44,26.223,44,26.668V61.5    C44,62.328,42.901,63,42.073,63z M22,60h19V27.371l-7.459-6.202C33.198,20.884,33,20.461,33,20.016V3h-3v17.016    c0,0.445-0.198,0.868-0.541,1.153L22,27.371V60z" fill="#35ba52"/>
		<path id="path-2_74_" d="M33.573,15h-5c-0.828,0-1.5-0.672-1.5-1.5s0.672-1.5,1.5-1.5h5c0.828,0,1.5,0.672,1.5,1.5    S34.401,15,33.573,15z" fill="#35ba52"/>
		<path id="path-3_74_" d="M31.912,48.049c-0.111,0-0.353-0.009-0.514-0.024C31.27,48.015,31.003,48,30.805,48H20.073    C19.245,48,19,47.328,19,46.5v-7c0-0.828,0.245-1.5,1.073-1.5h10.482C31.263,38,34,38.313,34,42.348v3.386    C34,47.748,32.613,48.049,31.912,48.049z M22,45h9v-2.652c0-0.731-0.539-1.158-0.618-1.348H22V45z" fill="#35ba52"/>
	</g>
</g>
<g>
</g>
<g>
</g>
<g>
</g>
<g>
</g>
<g>
</g>
<g>
</g>
<g>
</g>
<g>
</g>
<g>
</g>
<g>
</g>
<g>
</g>
<g>
</g>
<g>
</g>
<g>
</g>
<g>
</g>
</svg>
