<?xml version="1.0" encoding="UTF-8" standalone="no"?>
<!-- Created with Inkscape (http://www.inkscape.org/) -->

<svg
   xmlns:dc="http://purl.org/dc/elements/1.1/"
   xmlns:cc="http://creativecommons.org/ns#"
   xmlns:rdf="http://www.w3.org/1999/02/22-rdf-syntax-ns#"
   xmlns:svg="http://www.w3.org/2000/svg"
   xmlns="http://www.w3.org/2000/svg"
   version="1.1"
   width="228.37"
   height="90"
   id="svg3013"
   xml:space="preserve"><metadata
     id="metadata3019"><rdf:RDF><cc:Work
         rdf:about=""><dc:format>image/svg+xml</dc:format><dc:type
           rdf:resource="http://purl.org/dc/dcmitype/StillImage" /><dc:title></dc:title></cc:Work></rdf:RDF></metadata><defs
     id="defs3017" /><g
     transform="matrix(1.25,0,0,-1.25,-29.8,100.7)"
     id="g3021"><g
       transform="scale(0.1,0.1)"
       id="g3023"><path
         d="m 1989.3241,268.81453 c 0,10.50094 -0.5534,13.25901 -1.125,14.55137 -0.4173,0.75056 -1.831,3.2424 -5.7348,3.50863 l -1.853,0.14638 c -1.5158,0.14957 -3.4633,0.14957 -3.4633,1.22765 0,0.43858 0.541,0.89016 1.3865,0.89016 0.2816,0 0.561,0 0.833,0 6.4671,-0.28949 9.9566,-0.45158 14.0339,-0.45158 l 3.2216,0 c 1.9599,0 3.9107,0 5.8937,0.16209 3.3512,0.1253 6.5787,0.28949 9.9291,0.28949 15.5871,0 25.1137,-3.38419 29.8685,-7.99353 5.1943,-5.06893 7.0172,-11.53367 7.0172,-16.72246 0,-6.10726 -1.2523,-15.54 -9.122,-23.37074 -7.5584,-7.59609 -18.2222,-9.96753 -28.452,-9.96753 l -1.1034,0 c -0.8528,0 -2.272,-0.14109 -2.272,1.16604 0,1.03367 1.4192,1.2054 2.272,1.2054 0.5308,0 0.9451,0 1.5108,0 9.4138,0.14552 17.828,4.75137 21.5946,12.21127 2.1253,4.06739 2.5397,8.14209 2.5397,11.4821 0,6.99245 -1.1209,14.72916 -7.7147,20.77079 -7.14,6.55721 -15.2804,6.97122 -17.9304,6.97122 -0.5843,0 -1.0001,0 -1.5587,0 -3.643,-0.13611 -6.5787,0.15773 -6.5787,-3.50584 l 0,-70.76284 c 0,-3.74928 0.122,-16.84286 1.3914,-21.03904 0.8665,-2.66903 2.2421,-3.91977 6.746,-4.22629 l 1.7917,-0.0944 c 0.7215,0 1.4214,-0.15361 2.1111,-0.15361 0.1444,0 0.2903,0 0.4339,0 0.2731,0 1.105,0 1.105,-0.86855 0,-1.7815 -4.7639,-1.12941 -7.2745,-0.94204 -7.7059,0.2303 -9.9471,0.2303 -10.5468,0.2303 l -4.8731,0 c -1.2823,0 -7.2977,-0.2303 -10.3955,-0.41767 -0.8341,0 -1.5418,-0.11682 -2.3946,0 -1.0975,0.18737 -1.3892,0.72108 -1.3892,1.12941 0,0.69051 0.7134,0.86855 1.1253,0.86855 l 1.5548,0.15361 c 2.6378,0.27222 4.8996,0.40086 6.025,4.32063 0.4169,1.40132 1.3969,5.61952 1.3969,21.03905 l 0,58.19193 z m -59.1414,-39.2665 c 0.98,0 0.7103,0.69744 0.5659,0.97744 l -11.4907,40.34317 c -0.2822,0.87804 -0.6987,1.55984 -0.9799,1.55984 -0.4326,0 -0.8561,-0.95301 -0.9677,-1.55984 l -11.2311,-40.34317 c -0.1526,-0.28 -0.4459,-0.97744 0.5238,-0.97744 l 23.5797,0 z m -17.2436,54.36784 c -2.5351,4.07866 -5.4624,7.46729 -8.5475,7.63124 -0.5703,0 -1.1243,0 -1.1243,0.65473 0,0.26437 0.4061,0.57587 1.2696,0.43929 2.378,-0.28933 8.8314,-1.25797 20.0545,-1.25797 l 31.3734,-95.90312 c 1.9802,-4.08247 4.7747,-9.12457 11.3739,-10.12277 2.0842,-0.24796 3.5024,-0.0944 4.2227,-0.42599 0.5618,-0.10718 0.5618,-0.52485 0.5618,-0.69051 0,-1.24624 -2.7003,-1.12941 -3.6591,-1.12941 l -13.1662,0 c -2.1255,0 -10.2497,0.18736 -11.9465,0.28941 -0.6987,0 -2.3467,0.12825 -2.3467,1.00566 0,1.25736 0.9626,0.52485 1.648,1.39277 0.5758,0.71276 0.4256,2.40357 0.1542,3.37952 l -9.5279,34.48231 c -0.2822,0.81745 -1.0145,0.81745 -1.282,0.81745 l -26.9097,0 c -0.414,0 -0.9765,0 -1.4139,-1.10297 l -6.7035,-24.81912 c -1.8149,-5.33058 -1.9724,-7.71641 -1.9724,-8.8193 0,-4.20195 3.6505,-4.62778 5.3181,-4.62778 l 1.4179,0 c 0.405,0 1.4059,0 1.4059,-0.86854 0,-1.24624 -1.708,-1.12941 -2.1249,-1.12941 -2.2408,0 -4.3377,0.28941 -6.4304,0.28941 l -0.5766,0 c -1.4055,0 -2.6449,0.12825 -4.085,0.12825 l -2.2239,0 c -9.5263,0 -7.9768,-0.2303 -13.446,-0.41766 l -0.9768,0 c -1.2741,0 -1.7027,0.57524 -1.7027,0.88674 l 0,0.24267 c 0.2921,1.29437 2.2478,1.02215 4.2433,1.02215 4.3157,0.27222 8.4144,1.24904 12.8759,13.29347 l 24.2468,85.35948 z m -97.8304,-44.46478 c -1.5418,0 -3.2201,0.45959 -3.2201,-1.62836 l 0,-24.97724 c 0,-3.50988 0.1471,-7.1946 0.1471,-10.64653 0,-0.69518 0,-1.26599 0,-1.92967 0.148,-7.18838 0.407,-9.42931 4.7557,-11.09057 4.3556,-1.71725 10.5167,-1.95588 12.1956,-1.95588 7.1619,0 12.7477,3.23136 15.8458,7.29502 1.1159,1.48244 3.7739,5.62761 3.7739,12.98126 0,12.2171 -7.4122,28.08361 -21.9982,31.26955 -0.6982,0.14567 -3.3572,0.68242 -8.4015,0.68242 l -3.0983,0 z m -3.2201,5.91438 c 0,-1.92796 2.3683,-2.07628 6.3184,-2.07628 l 3.0704,0 c 4.2078,0 6.7186,0.14832 8.5526,0.69385 2.1052,0.7224 4.3376,2.25004 6.5999,6.46147 1.67,3.24139 2.6589,6.70476 2.6589,10.76872 0,7.73944 -2.8038,16.00231 -7.4355,19.93196 -4.6263,3.90382 -10.6503,4.06039 -12.6246,4.06039 -7.1401,0 -7.1401,-1.08912 -7.1401,-3.13204 l 0,-36.70807 z m -3.7849,43.32167 14.2947,0.45158 c 5.1901,0.12336 14.7179,-0.45158 21.3087,-5.3172 3.7838,-2.9617 8.2738,-7.88231 8.2738,-15.71282 0,-7.71734 -6.0322,-18.09306 -15.4151,-25.24597 6.2976,-2.11322 13.7201,-5.46583 17.5243,-9.26131 7.8349,-7.54701 8.832,-16.12294 8.832,-20.31128 0,-6.17314 -2.1094,-13.44723 -7.9894,-20.06433 -7.2762,-7.96289 -18.2308,-10.53609 -30.1465,-10.53609 -2.8032,0 -6.1748,0.16971 -11.6375,0.42164 -4.2,0.28941 -5.1937,0.41766 -6.7235,0.41766 l -5.0439,0 c -1.0009,0 -2.2622,0 -7.1622,-0.2303 -2.5429,-0.18736 -5.6159,-0.72325 -5.6159,0.94205 0,0.16566 0.1442,0.86854 1.3938,0.86854 l 0.2903,0 c 1.1285,0 2.8236,0.24796 3.6466,0.55448 0.2852,0.13541 1.2862,0.448 1.9597,1.11541 1.568,1.5554 2.8291,5.61237 2.8291,23.8434 l 0,55.9433 c 0,19.3347 -0.728,19.47501 -7.3069,20.30863 -2.5227,0.29595 -2.3773,0 -3.7842,0.29595 -0.4071,0 -1.1289,0.30706 -1.1289,0.82405 0,0.98 0.848,1.14419 1.42,1.14419 2.5338,0 7.7027,-0.45158 14.8469,-0.45158 l 5.3341,0 z m -88.1742,-88.41785 c 0,-5.48473 0.585,-8.29656 2.6678,-9.98325 2.1181,-1.70403 7.2981,-3.0632 14.4519,-3.0632 6.4538,0 10.7952,2.23666 13.5913,4.74989 4.7736,4.31317 6.1903,10.22623 6.1903,15.52639 0,10.26815 -4.3445,20.34589 -10.9537,25.53966 -6.1692,4.91586 -13.0417,6.41231 -19.6079,6.41231 l -3.1182,0 c -1.5092,0 -3.2215,0.45959 -3.2215,-1.62836 l 0,-37.55344 z m 0,47.22122 c 0,-3.77082 1.9889,-3.07308 7.1702,-3.20351 l 7.8646,-0.30396 c 7.533,-0.26335 18.3417,-2.81703 24.2442,-7.16535 7.5587,-5.57745 11.7637,-14.71633 11.7637,-23.52755 0,-7.46526 -2.6481,-15.26598 -8.683,-21.14995 -7.9956,-7.73376 -20.1965,-9.45047 -29.727,-9.45047 -6.5867,0 -9.4112,0.42164 -12.6327,0.609 -4.1923,0.2303 -6.4518,0.2303 -6.8519,0.2303 l -2.2366,0 c -1.9598,0 -3.9323,-0.12825 -8.1473,-0.2303 -3.7822,-0.18736 -4.2007,-0.18736 -4.6187,-0.18736 -0.5702,0 -1.3971,0.18736 -1.3971,1.12941 0,1.02215 1.1158,0.86854 1.3971,0.86854 l 2.6822,0.24796 c 6.8635,0.75452 6.0235,13.88489 6.0235,21.75973 l 0,53.83793 c 0,17.94505 0.6906,22.96094 -3.9353,25.08598 -1.8371,0.83362 -4.9262,1.12957 -6.0264,1.12957 l -0.4383,0 c -0.6904,0 -1.8076,0 -1.8076,0.94088 0,0.28163 0.286,0.86317 1.4071,1.02736 0.2634,0 0.5446,0 0.8388,0 4.6058,-0.16419 9.3838,-0.45158 14.022,-0.45158 1.2567,0 3.7578,0 5.0321,0 4.3381,0 6.7242,0.28739 11.9179,0.45158 0.2723,0 0.554,0 0.8444,0 1.26,0 1.4173,-0.74573 1.4173,-1.14419 0,-0.82405 -1.1372,-0.82405 -1.5566,-0.82405 l -0.7051,0 c -2.1182,0 -5.4565,-0.99447 -6.7155,-3.63806 -0.7067,-1.55851 -1.146,-3.93695 -1.146,-18.8062 l 0,-17.23571 z m -56.3241,-45.84914 c 0.9653,-2.67214 4.6079,-10.93727 8.5371,-13.85713 2.9689,-2.2491 5.6269,-2.42697 7.1837,-2.52132 l 1.5275,-0.15361 c 0.6905,0 1.823,0 1.823,-0.86854 0,-0.24267 -0.1298,-1.12941 -2.8109,-1.12941 l -23.9655,0.18736 c -1.6881,0 -4.3457,0.10205 -4.3457,1.23675 0,0.39581 0.5489,0.8218 1.1204,1.12832 0.4209,0.13541 1.1204,0.448 1.1204,1.37247 0,0.74798 -0.4221,2.27826 -0.6995,3.09921 l -22.5731,78.25377 c -0.131,0.42529 -0.4301,1.51768 -0.9891,1.51768 -0.5532,0 -0.8473,-0.95425 -0.9707,-1.51768 l -19.4849,-62.95473 c -2.2417,-6.46528 -2.5334,-8.29329 -3.2216,-11.08769 -0.2823,-1.26591 -0.7052,-2.79098 -0.7052,-4.34186 0,-2.10475 0.7052,-3.22576 1.3934,-3.77969 0.9894,-0.868 2.5334,-1.11596 3.9196,-1.11596 0.4215,0 1.0002,0 1.4305,0 0.3978,0 1.3846,0 1.3846,-0.86854 0,-1.6653 -2.9467,-1.12941 -5.1934,-0.94205 -1.4053,0.10205 -6.5948,0.2303 -7.9971,0.2303 l -2.2282,0 c -1.8353,0 -4.0728,-0.12825 -8.1437,-0.2303 -3.7943,-0.18736 -4.6255,-0.18736 -6.295,-0.18736 -1.2793,0 -1.6854,0.57524 -1.6854,1.00411 0,1.2418 1.6854,0.99384 3.2139,1.14745 l 2.1149,0.0944 c 6.0405,0.44194 9.1039,5.93973 11.7631,13.19912 l 29.4676,87.0555 c 0.6844,1.98862 2.8024,5.48178 4.3227,5.48178 1.2616,0 3.524,-2.98231 4.0874,-4.63556 l 26.8992,-84.81674 z m -88.4369,74.43489 c 0.5624,1.41454 1.9688,5.06893 1.9688,7.28964 0,0.75056 -0.1366,1.52538 -0.7111,2.24599 -1.1258,1.55859 -3.0775,1.55859 -4.9,1.55859 -0.5688,0 -0.9907,0 -1.5387,0 -0.2945,0 -0.5544,0 -0.857,0 -0.5619,0.12654 -0.6814,0.43003 -0.6814,0.82405 0,1.14419 1.2439,1.14419 1.9336,1.14419 1.5424,0 1.6957,0 4.3764,-0.16419 1.2764,0 5.6067,-0.28739 8.6751,-0.28739 l 2.1129,0 c 3.2217,0 5.3283,0.16209 7.2819,0.28739 2.1218,0.16419 5.7351,0.57354 5.7351,-0.86317 0,-0.94088 -0.9635,-0.94088 -1.6628,-0.94088 l -1.6868,-0.14957 c -3.92,-0.27681 -6.9967,-2.40341 -9.6674,-6.04147 -3.3612,-4.44756 -5.6157,-10.34491 -7.0125,-13.85494 l -33.3617,-81.1804 c -1.3937,-3.08467 -2.7948,-6.3224 -10.937,-6.3224 -1.419,0 -4.9201,0.29283 -6.3145,0.41759 l -5.4621,0.58854 c -2.2443,0.29361 -3.2354,0.56553 -3.2354,1.36345 0,1.12008 0.9911,1.00325 1.6901,1.00325 l 2.9473,0 c 2.0862,0 5.3295,0.8379 7.2895,1.82957 4.7559,2.39874 7.5677,6.57347 10.2165,11.4618 l 1.6995,3.12838 c 0.8444,1.38374 1.2577,3.36148 1.2577,4.74024 0,1.85018 -0.5453,3.3446 -1.2577,5.07485 l -29.7254,66.58516 c -1.8233,3.88796 -2.9487,6.59688 -4.76,8.30193 -2.2447,1.92445 -5.9005,2.75807 -7.5796,2.90445 l -2.5091,0.14957 c -0.4428,0 -1.6877,-0.14957 -1.6877,0.94088 0,0.86317 1.1108,1.02736 1.6877,1.02736 0.7024,0 1.2601,0 1.96,0 8.6703,-0.28949 11.2059,-0.45158 14.4333,-0.45158 l 3.2098,0 c 2.6702,0 4.4964,0.28739 12.7739,0.45158 0.4176,0 0.9716,0 1.3888,0 1.8409,0 2.126,-0.89016 2.126,-1.02736 0,-0.94088 -0.8568,-0.94088 -1.4232,-0.94088 l -1.8105,-0.14957 c -2.1036,-0.14638 -3.9412,-0.27681 -4.7719,-1.40902 -0.4314,-0.56288 -0.5533,-1.49543 -0.5533,-2.24599 0,-2.22071 2.5132,-7.99742 3.0843,-9.37137 l 23.6846,-52.59271 22.574,54.67444 z m -128.1155,-69.9426 c 0,-11.06817 0.857,-13.35484 1.2714,-14.16093 2.3887,-4.18849 11.2262,-4.74989 15.6796,-4.74989 7.1715,0 19.7852,3.61714 19.7852,21.31648 0,10.34102 -5.1809,21.00871 -13.4807,26.58204 -5.5731,3.79298 -10.635,4.32973 -16.7912,4.32973 l -3.2474,0 c -1.5289,0 -3.2169,0.45959 -3.2169,-1.62836 l 0,-31.68907 z m 2.3955,77.50843 c -1.1241,0 -2.3955,0.17943 -2.3955,-1.36796 l 0,-34.78362 c 0,-3.07308 1.4155,-3.07308 2.9575,-3.07308 12.0539,-0.31157 26.211,-0.43439 36.0196,-7.59974 7.7082,-5.57745 11.9157,-14.71633 11.9157,-23.52755 0,-14.73375 -12.1931,-30.60042 -37.8496,-30.60042 -4.35,0 -7.8518,0.30481 -14.4448,0.609 -2.2487,0.10205 -3.0929,0.2303 -4.2009,0.2303 l -3.5074,0 c -6.8679,0 -8.5381,-0.41766 -12.7478,-0.41766 -0.433,0 -1.2718,0 -1.4224,0.88674 0,0.11737 0,0.11737 0,0.24267 0.1506,1.1165 1.4224,0.86854 2.8034,1.02215 l 1.2914,0.0944 c 3.0715,0.30652 4.047,2.1042 4.5933,4.22629 1.128,4.11577 1.4135,13.33586 1.4135,16.06733 l 0,65.93821 c 0,6.46543 0,11.08994 -2.2318,13.30218 -1.6972,1.71702 -4.7847,1.98325 -6.4474,2.12963 l -2.1098,0.14957 c -0.4336,0 -1.3873,0.12654 -1.3873,0.82405 0,0.98 0.8176,1.14419 1.3873,1.14419 1.9737,0 7.8537,-0.45158 14.8576,-0.45158 1.6756,0 12.3268,0 14.4274,0 22.5943,0 31.1376,0 34.2136,0.57494 1.985,0.43929 2.6708,0.97471 3.2206,0.97471 0.2716,0 0.7121,-0.2639 0.7121,-0.53542 0,-1.70684 -0.9729,-2.10086 -1.2619,-6.88684 l -0.1585,-2.49145 c -0.1265,-3.25842 -0.1265,-4.38387 -0.2637,-5.7722 l -0.1486,-1.65379 c 0,-0.59632 -0.115,-1.30799 -1.1114,-1.30799 -0.7,0 -0.8435,0.83938 -0.9886,1.30799 -0.2723,1.35147 -0.1458,1.51838 -0.2723,2.21838 l -0.4309,2.51906 c -0.7042,4.2147 -6.4379,5.58274 -12.8854,5.73137 l -23.547,0.27619 z m -145.6903,26.07064 c 4.2345,0.58528 11.0863,2.23293 14.1623,4.78987 0.2897,0.2695 0.558,0.56319 0.9846,0.56319 l 0.1585,0 c 0.2809,0 0.7051,-0.41852 0.7051,-0.70731 0,-1.94771 -5.7717,-7.56226 -12.4824,-10.47682 -6.8785,-3.00713 -14.0202,-3.42277 -17.9433,-3.42277 -4.6347,0 -4.7673,1.27929 -5.9124,4.48638 -1.5265,4.49166 -1.9435,6.29284 -1.9435,7.29034 0,1.15516 0.5621,1.54653 0.8515,1.67502 0.1284,0 0.2474,0 0.4055,0 0.9749,-0.12849 0.8304,-0.40607 3.6426,-2.08841 2.246,-1.39315 3.9281,-2.53423 10.097,-2.53423 2.5099,0 4.8998,0.14894 7.2745,0.42474 z m 23.2873,-19.6182 c 0.9854,1.51589 3.2137,3.76173 4.8983,3.76173 1.1356,0 3.108,-0.69899 3.108,-4.15489 l 0,-77.70755 c 0,-16.68792 1.1084,-20.88473 2.7736,-22.39004 1.2833,-1.26918 4.0896,-1.58752 5.3304,-1.71049 l 1.8397,-0.15828 c 1.8159,-0.12864 3.6316,0.28125 3.6316,-0.97681 0,-1.24273 -0.9586,-1.09441 -1.5384,-1.09441 -0.2773,0 -0.4173,0 -0.7032,0 -5.0324,-0.14832 -10.3705,0.41067 -15.5628,0.41067 l -4.3256,0 c -3.5279,0 -6.7284,-0.13993 -11.9126,-0.41067 -0.2855,0 -0.5875,0 -0.861,0 -1.2617,0.13541 -1.6783,0.97074 -1.2617,1.50757 0.2942,0.56365 0.8488,0.43501 1.1292,0.43501 l 2.8044,0.28692 c 1.1153,0.12297 2.5097,0.68055 3.2076,1.37877 0.712,0.7329 1.5383,2.24972 2.1186,6.59221 0.5629,4.51087 0.6982,12.09211 0.6982,16.04454 l 0,59.82542 -59.5981,-85.40879 c -0.6904,-0.92641 -2.2293,-2.933 -3.9043,-2.933 -1.1282,0 -2.3925,0.69884 -2.3925,4.21393 l 0,83.16552 c 0,10.64358 -0.4179,13.42538 -1.1271,15.12871 -0.9952,2.36942 -2.7927,3.08031 -6.1648,3.49028 l -2.1127,0.31049 c -0.5576,0.10679 -1.1084,0.27152 -1.1084,1.09884 0,0.67363 0.6952,0.81021 1.3901,0.81021 0.2894,0 0.5734,0 0.847,0 3.3537,0 9.807,-0.39371 13.1917,-0.39371 l 3.6231,0 c 2.5373,0 4.7739,0.12919 11.9154,0.39371 0.2898,0 0.5837,0 0.8649,0 0.9844,0 1.4012,-0.52515 1.4012,-0.81021 0,-1.26474 -1.1308,-1.09884 -2.5434,-1.26474 l -2.1003,-0.27339 c -1.6864,-0.28117 -3.3525,-0.99206 -4.3326,-3.23727 -0.4313,-0.95985 -1.115,-3.07098 -1.115,-10.51198 l 0,-69.12943 57.8915,83.71113 z m -115.3697,0 c 0.9966,1.51589 3.263,3.76173 4.9206,3.76173 1.121,0 3.0765,-0.69899 3.0765,-4.15489 l 0,-77.70755 c 0,-16.68792 1.1517,-20.88473 2.8031,-22.39004 1.2884,-1.26918 4.0734,-1.58752 5.3347,-1.71049 l 1.8406,-0.15828 c 1.82,-0.12864 3.6316,0.28125 3.6316,-0.97681 0,-1.24273 -0.9943,-1.09441 -1.5444,-1.09441 -0.2672,0 -0.4116,0 -0.707,0 -5.0314,-0.14832 -10.3621,0.41067 -15.5561,0.41067 l -4.3413,0 c -3.5087,0 -6.7296,-0.13993 -11.9256,-0.41067 -0.263,0 -0.5578,0 -0.8247,0 -1.2915,0.13541 -1.6846,0.97074 -1.2915,1.50757 0.302,0.56365 0.8732,0.43501 1.1329,0.43501 l 2.8167,0.28692 c 1.1205,0.12297 2.5292,0.68055 3.2163,1.37877 0.6938,0.7329 1.559,2.24972 2.1063,6.59221 0.5517,4.51087 0.7182,12.09211 0.7182,16.04454 l 0,59.82542 -59.6029,-85.40879 c -0.69,-0.92641 -2.2369,-2.933 -3.9355,-2.933 -1.1172,0 -2.3573,0.69884 -2.3573,4.21393 l 0,83.16552 c 0,10.64358 -0.4384,13.42538 -1.125,15.12871 -1.0009,2.36942 -2.8156,3.08031 -6.1699,3.49028 l -2.1074,0.31049 c -0.5694,0.10679 -1.1171,0.27152 -1.1171,1.09884 0,0.67363 0.6951,0.81021 1.4055,0.81021 0.282,0 0.572,0 0.8321,0 3.3433,0 9.8202,-0.39371 13.1721,-0.39371 l 3.6572,0 c 2.5131,0 4.76,0.12919 11.9116,0.39371 0.2723,0 0.5717,0 0.8525,0 0.9559,0 1.3796,-0.52515 1.3796,-0.81021 0,-1.26474 -1.1065,-1.09884 -2.5173,-1.26474 l -2.0967,-0.27339 c -1.6952,-0.28117 -3.3662,-0.99206 -4.3461,-3.23727 -0.4236,-0.95985 -1.1157,-3.07098 -1.1157,-10.51198 l 0,-69.12943 57.8734,83.71113 z m -156.1299,-47.55489 0.5723,0 29.5725,38.45489 c 2.2343,2.64756 3.3457,4.36481 3.3457,5.84189 0,3.96379 -3.089,-0.1134 -3.089,3.86206 0,0.77536 0.7176,0.91194 1.6875,0.91194 1.281,0 3.7833,-0.39371 8.9701,-0.39371 l 4.3568,0 c 1.9599,0 3.923,0.25713 11.6491,0.39371 0.2808,0 0.558,0 0.8247,0 1.5346,0 1.4245,-1.22305 0.9942,-1.63753 -0.5656,-0.58201 -1.8189,0.25698 -6.0346,-1.11487 -8.836,-2.83321 -20.0528,-16.56666 -23.5599,-20.92502 l -17.6739,-22.97804 43.4817,-59.43949 c 8.5424,-11.67538 14.4381,-13.61267 20.4681,-16.0083 2.7898,-0.98825 6.871,-1.78547 8.8238,-1.78547 l 0.5599,0 c 0.5725,0 1.5571,0 1.5571,-0.86621 0,-0.93139 -2.3971,-1.25549 -5.0612,-1.25549 -1.8078,0 -3.7791,0.12841 -8.4022,0.12841 -10.5113,0 -14.1588,1.12708 -22.4381,7.98319 -8.4069,7.00054 -42.2064,57.21761 -49.9092,66.34787 l -0.6954,0 0,-26.95724 c 0,-3.76662 0.1327,-16.7874 1.4079,-20.99237 0.9736,-3.22576 2.6586,-3.77526 7.1481,-4.21657 l 1.5311,-0.15828 c 1.1207,-0.12864 2.5297,0.15828 2.5297,-0.97681 0,-0.959 -1.2652,-1.09441 -2.2412,-1.09441 -6.8673,0 -4.9132,0.41067 -15.0193,0.41067 l -3.3531,0 c -1.9802,0 -9.5341,-0.27526 -13.0539,-0.41067 -0.2817,0 -0.5402,0 -0.8202,0 -1.1398,0.13541 -1.4174,0.66165 -1.4174,1.09441 0,0.84817 0.8487,0.84817 1.1249,0.84817 0.4225,0 0.831,0 1.2663,0 4.4986,0.12864 5.7597,2.26636 6.3062,4.50349 0.4287,1.41034 1.4087,5.60731 1.4087,20.99237 l 0,55.41045 c 0,13.00234 -0.4338,15.43655 -0.8643,16.55228 -0.9503,3.06016 -3.3319,4.07376 -7.8244,4.47051 l -1.6853,0.1659 c -1.1205,0.10679 -1.8321,0.10679 -1.8321,0.99711 0,0.91194 0.8521,0.91194 1.4103,0.91194 0.2879,0 0.5698,0 0.8471,0 6.4412,-0.13658 8.2782,-0.39371 14.4437,-0.39371 l 3.2169,0 c 4.9083,0 8.828,0.25713 13.1874,0.39371 0.2849,0 0.5507,0 0.8389,0 1.1293,-0.13658 1.3901,-0.52515 1.3901,-0.81021 0,-0.28171 0,-0.99205 -1.1162,-1.09884 l -1.4116,-0.1659 c -2.8073,-0.27339 -5.1632,-0.67745 -6.4456,-3.51066 -0.685,-1.67891 -0.9727,-4.19028 -0.9727,-10.09369 l 0,-33.39148 z m -96.15436,-39.82043 c 0,-5.44903 0.55417,-8.26583 2.67245,-9.94039 2.10723,-1.66973 7.27689,-3.05036 14.42513,-3.05036 6.45478,0 10.79672,2.22561 13.60022,4.72492 4.79376,4.37088 6.18225,10.23454 6.18225,15.5806 0,10.25679 -4.35493,20.3245 -10.92778,25.50551 -6.17905,4.93827 -13.05593,6.46504 -19.63438,6.46504 l -3.08801,0 c -1.55112,0 -3.22988,0.42094 -3.22988,-1.68427 l 0,-37.60105 z m 0,47.26532 c 0,-3.77253 1.96872,-3.06172 7.15346,-3.22 l 7.86924,-0.27082 c 7.5369,-0.28171 18.36007,-2.79487 24.22716,-7.16644 7.5798,-5.58523 11.7895,-14.69557 11.7895,-23.52778 0,-7.44691 -2.6757,-15.28676 -8.7048,-21.1876 -7.96837,-7.69736 -20.18368,-9.39112 -29.72001,-9.39112 -6.57347,0 -9.38467,0.44302 -12.61455,0.57843 -4.21003,0.27526 -6.45057,0.27526 -6.86412,0.27526 l -2.24054,0 c -1.95985,0 -3.93291,-0.13993 -8.13914,-0.27526 -3.79135,-0.13541 -4.18296,-0.13541 -4.60522,-0.13541 -0.57019,0 -1.4231,0.13541 -1.4231,1.09441 0,0.97681 1.13416,0.84817 1.4231,0.84817 l 2.63706,0.28692 c 6.87719,0.68055 6.02466,13.88465 6.02466,21.72403 l 0,53.85995 c 0,17.9382 0.71214,22.97361 -3.92816,25.10324 -1.80662,0.81037 -4.88725,1.12086 -6.01635,1.12086 l -0.41331,0 c -0.69906,0 -1.82319,0 -1.82319,0.99711 0,0.23605 0.28101,0.77536 1.41081,0.91194 0.27184,0 0.56218,0 0.82569,0 4.62319,-0.13658 9.3821,-0.39371 14.02715,-0.39371 1.2481,0 3.79656,0 5.03183,0 4.34576,0 6.74528,0.25713 11.90008,0.39371 0.29812,0 0.56669,0 0.88962,0 1.23247,0 1.36842,-0.67589 1.36842,-1.09192 0,-0.81713 -1.1249,-0.81713 -1.533,-0.81713 l -0.72504,0 c -2.06765,0 -5.44546,-1.01423 -6.71137,-3.67656 -0.70241,-1.54754 -1.11588,-3.95127 -1.11588,-18.79912 l 0,-17.24116 z m -88.00477,-5.02957 c 0.13175,0.68218 0.69906,0.68218 1.40622,0.68218 0.40024,0 0.80943,0 1.25681,0 4.46468,0 10.77572,0.99198 16.8042,6.50627 4.63174,4.11569 6.03773,9.20275 6.03773,15.50811 0,4.08271 -0.83906,9.41314 -5.48364,14.32239 -3.77067,4.0509 -9.23705,6.6066 -15.39837,6.6066 -3.66465,0 -14.30325,-1.02324 -16.8301,-9.27974 -1.134,-3.62227 -0.56653,-6.7347 -0.99338,-7.56654 -0.14062,-0.16597 -0.53207,-0.56972 -0.68506,-0.56972 l -0.30209,0 c -1.10421,0.13425 -1.10421,3.79097 -1.25666,5.90015 l -0.42622,6.72801 c 0,0.6846 -0.12903,2.93035 -0.12903,3.63323 0,1.26124 0.55525,1.26124 2.65844,1.96498 l 1.39036,0.41728 c 6.88893,2.0916 15.43173,3.76662 22.58589,3.76662 5.32194,0 12.62442,-0.82686 18.93803,-6.01751 5.03541,-4.23454 8.66678,-10.92343 8.66678,-17.78747 0,-9.53649 -9.23199,-19.08682 -20.87338,-24.13266 18.07874,-3.93664 26.91928,-17.92987 26.91928,-29.58246 0,-8.64788 -4.48241,-18.21416 -12.88444,-24.81391 -6.03711,-4.60624 -14.03484,-7.55417 -24.27366,-7.55417 -5.32125,0 -13.58296,1.11627 -17.93268,2.24793 l -3.64303,0.98 c -2.79067,0.69184 -5.73938,1.10173 -5.73938,3.91853 0,0.56451 -0.15665,1.38771 0.1407,6.71362 l 0.27697,5.76831 c 0.1365,2.11952 0.1365,7.27409 1.54225,7.27409 0.26795,0 0.55409,0 0.69448,-0.27666 2.08864,-2.6509 -1.12879,-11.60273 9.26209,-18.09165 3.77144,-2.34804 8.68428,-3.76989 14.28241,-3.76989 7.01338,0 12.75703,2.38218 16.42075,5.60365 3.62655,3.21565 7.41013,9.12435 7.41013,18.38045 0,8.13618 -2.38203,21.30706 -17.24318,27.3441 -4.06047,1.64819 -7.55432,2.35169 -11.64092,2.35169 -0.40421,0 -1.78874,-0.12624 -1.69564,0.40887 l 0.73734,2.41532 z m -47.23398,33.65638 c 0.56684,1.39324 1.95168,5.03075 1.95168,7.28926 0,0.68608 -0.14094,1.5253 -0.70304,2.22452 -1.11634,1.57625 -3.07214,1.57625 -4.89144,1.57625 -0.56685,0 -0.99665,0 -1.55462,0 -0.27728,0 -0.546,0 -0.83137,0 -0.5579,0.10679 -0.69012,0.39316 -0.69012,0.81713 0,1.09192 1.24421,1.09192 1.94709,1.09192 1.55532,0 1.68684,0 4.32856,-0.13658 1.28256,0 5.62894,-0.25713 8.71399,-0.25713 l 2.10062,0 c 3.21207,0 5.35003,0.12919 7.27215,0.25713 2.11283,0.13658 5.7813,0.6048 5.7813,-0.77536 0,-0.99711 -0.9926,-0.99711 -1.68327,-0.99711 l -1.72472,-0.1659 c -3.91098,-0.27339 -6.98437,-2.42169 -9.64546,-6.02451 -3.36202,-4.50396 -5.61228,-10.38342 -6.99774,-13.88995 l -33.38222,-81.17013 c -1.40148,-3.05185 -2.81089,-6.31439 -10.92428,-6.31439 -1.41369,0 -4.92917,0.28078 -6.32232,0.41665 l -5.47501,0.56708 c -2.23269,0.27222 -3.20834,0.56638 -3.20834,1.41525 0,1.12832 0.97565,0.98 1.67028,0.98 l 2.94817,0 c 2.10046,0 5.33026,0.80997 7.29905,1.8144 4.77564,2.39859 7.56584,6.59096 10.22444,11.49439 l 1.68754,3.08863 c 0.82756,1.4021 1.26576,3.34997 1.26576,4.75634 0,1.81487 -0.56677,3.36475 -1.26576,5.05229 l -29.72659,66.56557 c -1.81922,3.9319 -2.92654,6.61212 -4.76342,8.29959 -2.24964,1.99383 -5.88412,2.8042 -7.57976,2.94879 l -2.5011,0.1659 c -0.43454,0 -1.69555,-0.1659 -1.69555,0.99711 0,0.77536 1.11183,0.91194 1.69555,0.91194 0.68608,0 1.25254,0 1.95565,0 8.68319,-0.26452 11.21898,-0.39371 14.43563,-0.39371 l 3.21674,0 c 2.66303,0 4.48241,0.25713 12.76084,0.39371 0.41759,0 0.97572,0 1.41377,0 1.82816,0 2.093,-0.81021 2.093,-0.91194 0,-0.99711 -0.84381,-0.99711 -1.40203,-0.99711 l -1.81471,-0.1659 c -2.1308,-0.14459 -3.93711,-0.27339 -4.77656,-1.41035 -0.42203,-0.56785 -0.56265,-1.53844 -0.56265,-2.22452 0,-2.25851 2.51409,-7.98054 3.09377,-9.38972 l 23.68022,-52.5903 22.58628,54.69076 z M 673.7553,194.90076 c 0,-1.53814 0,-3.50319 3.49518,-3.50319 l 41.65023,0 c 3.49386,0 3.49386,1.96505 3.49386,3.50319 l 0,42.04868 c 0,17.94552 0.70295,22.97509 -3.9284,25.10356 -1.82358,0.87407 -4.89121,1.11207 -6.03307,1.11207 l -0.41759,0 c -0.70731,0 -1.8109,0 -1.8109,0.96257 0,0.32426 0.26857,0.85665 1.40622,1.01656 0.28109,0 0.5537,0 0.82227,0 4.64847,-0.15991 9.40761,-0.44147 14.03461,-0.44147 1.26972,0 3.79198,0 5.04047,0 4.34599,0 6.73198,0.28156 11.91719,0.44147 0.27696,0 0.57112,0 0.84793,0 1.26972,0 1.39316,-0.6923 1.39316,-1.15967 0,-0.81946 -1.10336,-0.81946 -1.52507,-0.81946 l -0.71602,0 c -2.09199,0 -5.4621,-0.96087 -6.73175,-3.61963 -0.6818,-1.58091 -1.12498,-3.95134 -1.12498,-18.82494 l 0,-33.91959 c 0,-10.93664 0.56669,-12.88008 1.26102,-13.72 0.85228,-1.12684 2.53952,-1.25681 4.90855,-1.25681 l 5.0491,0 c 0.7112,0 2.10459,0 2.10459,-1.55828 0,-1.09573 -0.54966,-2.09035 -1.10771,-3.63129 -0.71143,-2.40955 -0.99688,-5.92239 -1.55089,-14.30317 -0.12787,-1.81907 -0.12787,-4.74118 -1.3846,-4.74118 -0.85221,0 -0.85221,1.078 -1.00131,1.65418 l -0.27681,2.24785 -0.28148,1.81619 c -0.98848,6.49234 -3.37027,8.95658 -5.74778,10.08404 -4.2266,2.12303 -15.82855,2.68202 -21.56754,2.68202 l -51.33217,0 c -1.26653,0 -2.95252,-0.13993 -11.92178,-0.41067 -0.27953,0 -0.56754,0 -0.83525,0 -1.12389,0.13541 -1.39129,0.66165 -1.39129,1.09441 0,0.84817 0.81542,0.84817 1.10825,0.84817 0.83876,0 0.99867,0 2.93588,0.28692 1.96031,0.28218 3.67142,0.68055 4.64007,4.21657 0.40763,1.41034 1.38172,5.60731 1.38172,20.99237 l 0,50.22913 c 0,17.94496 0.72855,22.96116 -3.90507,25.07454 -1.82552,0.85618 -4.9112,1.12957 -6.03602,1.12957 l -0.41969,0 c -0.70381,0 -1.82567,0 -1.82567,0.98303 0,0.28171 0.28295,0.8274 1.41788,0.95534 0.25963,0 0.53947,0 0.82748,0 4.63634,-0.12794 9.39144,-0.38857 14.02349,-0.38857 1.26171,0 3.76149,0 5.05283,0 4.32219,0 6.71075,0.26063 11.89114,0.38857 0.29835,0 0.588,0 0.83953,0 1.28232,0 1.42295,-0.67363 1.42295,-1.08647 0,-0.8519 -1.12467,-0.8519 -1.54234,-0.8519 l -0.72014,0 c -2.08997,0 -5.45658,-0.95496 -6.70841,-3.63487 -0.70724,-1.5547 -1.12187,-3.92669 -1.12187,-18.81919 l 0,-72.18065 z m -52.82573,18.20147 c 0,-3.76662 0.13976,-16.7874 1.39113,-20.99237 0.98544,-3.22576 2.67493,-4.0936 9.8196,-4.50349 0.4214,0 0.85556,0 1.26163,0 0.28451,0 1.11666,0 1.11666,-0.84817 0,-1.09441 -1.11666,-1.09441 -2.23347,-1.09441 -3.10045,0 -3.79112,0.41067 -15.55773,0.41067 l -4.90163,0 c -1.27634,0 -2.93433,-0.13993 -11.92832,-0.41067 -0.25814,0 -0.55587,0 -0.84583,0 -1.14302,0.13541 -1.39782,0.66165 -1.39782,1.09441 0,0.84817 0.84179,0.84817 1.1186,0.84817 0.86691,0 0.97004,0 2.95431,0.28692 1.93503,0.28218 3.63642,0.68055 4.59791,4.21657 0.4417,1.41034 1.4301,5.60731 1.4301,20.99237 l 0,38.30805 c 0,0.43594 -0.43462,0.85384 -0.847,0.85384 l -48.3658,0 c -0.27603,0 -0.85719,0 -0.85719,-0.85384 l 0,-4.48747 c 0,-3.77899 0.14654,-16.83655 1.41657,-21.0343 0.96514,-3.23229 2.66941,-4.08987 9.81641,-4.48669 0.41572,0 0.83378,0 1.26607,0 0.2583,0 1.09581,0 1.09581,-0.83066 0,-1.11534 -1.09581,-1.11534 -2.23884,-1.11534 -3.07245,0 -3.77844,0.3899 -15.55143,0.3899 l -4.91493,0 c -1.26024,0 -2.94918,-0.16481 -11.92178,-0.3899 -0.26289,0 -0.54577,0 -0.8239,0 -1.11323,0.10874 -1.40607,0.66734 -1.40607,1.11534 0,0.83066 0.84366,0.83066 1.12467,0.83066 0.84241,0 0.98226,0 2.94941,0.28171 1.95907,0.28164 3.63012,0.69821 4.61673,4.20498 0.43642,1.39285 1.38647,5.61937 1.38647,21.0343 l 0,16.55446 c 0,17.9382 0.71073,22.97361 -3.91588,25.10324 -1.80102,0.81037 -4.87526,1.12086 -6.02847,1.12086 l -0.41588,0 c -0.6958,0 -1.81588,0 -1.81588,0.99711 0,0.23605 0.27308,0.77536 1.39144,0.91194 0.30427,0 0.56599,0 0.84032,0 4.63174,-0.13658 9.40496,-0.39371 14.01882,-0.39371 1.27501,0 3.80279,0 5.06605,0 4.32717,0 6.71915,0.25713 11.91494,0.39371 0.27315,0 0.54755,0 0.84707,0 1.25184,0 1.37014,-0.67589 1.37014,-1.09192 0,-0.81713 -1.09356,-0.81713 -1.5316,-0.81713 l -0.68561,0 c -2.12341,0 -5.48894,-1.01423 -6.72708,-3.67656 -0.70265,-1.54754 -1.14357,-3.95127 -1.14357,-18.79912 l 0,-8.80071 c 0,-0.46045 -0.11301,-0.85781 0.85719,-0.85781 l 48.3658,0 c 0.41238,0 0.847,-0.13666 0.847,0.85781 l 0,5.05229 c 0,17.9382 0.69572,22.97361 -3.92972,25.10324 -1.83556,0.81037 -4.9147,1.12086 -6.02941,1.12086 l -0.42125,0 c -0.70575,0 -1.82739,0 -1.82739,0.99711 0,0.23605 0.29276,0.77536 1.39114,0.91194 0.28288,0 0.56583,0 0.8575,0 4.63151,-0.13658 9.3933,-0.39371 14.03018,-0.39371 1.24498,0 3.78606,0 5.02296,0 4.36038,0 6.71681,0.25713 11.92466,0.39371 0.27619,0 0.57431,0 0.83222,0 1.27657,0 1.40801,-0.67589 1.40801,-1.09192 0,-0.81713 -1.11183,-0.81713 -1.54272,-0.81713 l -0.69751,0 c -2.10381,0 -5.46724,-1.01423 -6.73556,-3.67656 -0.70054,-1.54754 -1.10825,-3.95127 -1.10825,-18.79912 l 0,-54.12346 z m -121.27174,18.96215 c 1.01998,0 0.71245,0.69276 0.55604,0.9744 l -11.46896,40.3697 c -0.27992,0.84008 -0.70249,1.547 -0.98708,1.547 -0.41113,0 -0.8421,-0.98856 -0.98171,-1.547 l -11.22263,-40.3697 c -0.13191,-0.28164 -0.40779,-0.9744 0.57555,-0.9744 l 23.52879,0 z m -17.234,54.3865 c -2.51346,4.06762 -5.46256,7.40538 -8.53152,7.53355 -0.57089,0 -1.12661,0 -1.12661,0.78284 0,0.2583 0.42101,0.51022 1.25813,0.39876 2.37153,-0.28459 8.84435,-1.30977 20.05174,-1.30977 l 31.3929,-95.88173 c 1.96715,-4.0537 4.75136,-9.09043 11.35547,-10.08124 2.10895,-0.28692 3.52015,-0.15828 4.21082,-0.46177 0.54568,-0.10165 0.54568,-0.51699 0.54568,-0.67332 0,-1.24273 -2.64755,-1.09441 -3.64793,-1.09441 l -13.14802,0 c -2.12567,0 -10.241,0.13541 -11.92987,0.27074 -0.69424,0 -2.39376,0.13993 -2.39376,0.98 0,1.26094 0.97704,0.51699 1.69952,1.42007 0.55269,0.68631 0.3962,2.38241 0.11806,3.3537 l -9.52816,34.50269 c -0.25667,0.80298 -0.96211,0.80298 -1.25184,0.80298 l -26.93055,0 c -0.40771,0 -0.98163,0 -1.38118,-1.10546 l -6.73408,-24.81827 c -1.81097,-5.35165 -1.96544,-7.70762 -1.96544,-8.84947 0,-4.20451 3.64964,-4.6144 5.33563,-4.6144 l 1.39666,0 c 0.42435,0 1.40809,0 1.40809,-0.84817 0,-1.24273 -1.6996,-1.09441 -2.12046,-1.09441 -2.25524,0 -4.32724,0.27074 -6.44093,0.27074 l -0.56926,0 c -1.38654,0 -2.6698,0.13993 -4.06085,0.13993 l -2.24358,0 c -9.52366,0 -7.98552,-0.27526 -13.45307,-0.41067 l -0.99851,0 c -1.22998,0 -1.66927,0.53348 -1.66927,0.84817 l 0,0.24624 c 0.28794,1.25806 2.23853,0.97681 4.20226,0.97681 4.3575,0.28125 8.41672,1.2859 12.91539,13.33523 l 24.23454,85.38064 z m -98.79484,-15.15212 c 0,10.53577 -0.55941,13.35397 -1.13508,14.60184 -0.41628,0.68608 -1.81425,3.23812 -5.76221,3.49028 l -1.80394,0.14459 c -1.5428,0.1659 -3.52695,0.1659 -3.52695,1.26474 0,0.4165 0.5828,0.81021 1.42304,0.81021 0.288,0 0.56111,0 0.82054,0 6.47416,-0.26452 9.9846,-0.39371 14.03566,-0.39371 l 3.22871,0 c 1.97053,0 3.94755,0 5.8917,0.12919 3.36855,0.12794 6.57253,0.26452 9.9526,0.26452 15.56978,0 25.09811,-3.3404 29.85344,-7.96833 5.18723,-5.03075 7.01174,-11.49073 7.01174,-16.68909 0,-6.14351 -1.25688,-15.54272 -9.11897,-23.40753 -7.55596,-7.57929 -18.21634,-9.94405 -28.45866,-9.94405 l -1.12015,0 c -0.83036,0 -2.25976,-0.13595 -2.25976,1.10647 0,1.11292 1.4294,1.25829 2.25976,1.25829 0.57104,0 1.00901,0 1.55804,0 9.38856,0.13518 17.80691,4.75432 21.5866,12.22262 2.09704,4.07532 2.51961,8.0703 2.51961,11.44943 0,7.05904 -1.12848,14.73321 -7.7126,20.75633 -7.14661,6.61997 -15.27672,7.03134 -17.95165,7.03134 -0.55892,0 -0.9667,0 -1.54747,0 -3.61861,-0.13043 -6.57253,0.13137 -6.57253,-3.47667 l 0,-70.847 c 0,-3.76662 0.12833,-16.7874 1.40311,-20.99237 0.83844,-2.69259 2.23852,-3.93439 6.71689,-4.21657 l 1.8326,-0.15828 c 0.70077,0 1.41322,-0.12864 2.08218,-0.12864 0.16614,0 0.30303,0 0.44435,0 0.28809,0 1.10818,0 1.10818,-0.84817 0,-1.82692 -4.7565,-1.09441 -7.273,-0.959 -7.70581,0.27526 -9.96113,0.27526 -10.52,0.27526 l -4.91472,0 c -1.24031,0 -7.27352,-0.27526 -10.37055,-0.41067 -0.8474,0 -1.54149,-0.14832 -2.38174,0 -1.12862,0.13541 -1.41793,0.66165 -1.41793,1.09441 0,0.67332 0.71245,0.84817 1.14141,0.84817 l 1.52793,0.12864 c 2.67778,0.28125 4.91169,0.44046 6.02333,4.37485 0.441,1.41034 1.42649,5.60731 1.42649,20.99237 l 0,58.19653 z m -70.64275,-66.16004 c 8.9726,-0.32246 14.04197,2.63581 20.19312,8.55206 7.98881,7.59469 9.40208,18.3736 9.40208,26.2199 0,7.41712 -1.41327,18.63205 -9.40208,26.23818 -6.15115,5.87953 -11.22052,8.80662 -20.19312,8.52514 l 0,-69.53528 z M 299.81815,274.674 c -8.97422,0.28148 -14.30175,-2.64561 -20.46975,-8.52514 -7.99551,-7.60613 -9.40859,-18.82106 -9.40859,-26.23818 0,-7.8463 1.41308,-18.62521 9.40859,-26.2199 6.168,-5.91625 11.49553,-8.87452 20.46975,-8.55206 l 0,69.53528 z m 13.16809,4.78357 c 10.10594,-0.1568 19.62903,-2.82373 28.46016,-8.59701 7.70929,-4.8846 16.67508,-14.14133 16.67508,-30.94988 0,-16.85592 -11.05991,-26.09764 -18.76239,-31.00106 -8.98538,-5.73074 -16.53833,-8.39689 -26.37285,-8.53448 l 0,-2.40061 c 0,-8.95362 1.68766,-11.21633 7.01182,-11.90007 2.94755,-0.41067 6.58235,0.25098 6.58235,-1.27159 0,-1.25199 -0.96504,-1.11627 -1.53769,-1.11627 -0.27951,0 -0.40774,0 -0.71069,0 -5.02121,-0.13572 -10.34879,0.40468 -15.55151,0.40468 l -4.89171,0 c -3.36509,0 -6.7255,-0.11675 -11.9348,-0.40468 -0.26298,0 -0.55588,0 -0.81715,0 -1.13511,0.14583 -1.4197,0.69067 -1.4197,0.98513 0,0.25955 0,0.99206 1.12677,0.99206 0.42607,0 0.8471,0 1.26654,0 6.86363,0.41067 7.70768,5.16927 7.70768,12.72709 l 0,1.98426 c -9.8164,0.13759 -19.76413,2.80374 -28.73649,8.53448 -7.72259,4.90342 -16.68166,14.14514 -16.68166,31.00106 0,16.80855 8.95907,26.06528 16.68166,30.94988 8.83088,5.77328 18.6355,8.44021 28.73649,8.59701 l 0,2.37696 c 0,5.18 -0.40477,9.25074 -5.04974,10.36731 -1.81246,0.43089 -5.46732,0 -5.46732,1.65442 0,0.72286 0.70066,0.91101 1.40633,0.91101 0.27631,0 0.56258,0 0.84216,0 3.36029,0 9.80454,-0.4697 13.17987,-0.4697 l 4.20229,0 c 2.35533,0 4.91175,0.15042 11.91505,0.4697 0.27312,0 0.55263,0 0.82232,0 1.01832,0 1.42307,-0.59648 1.42307,-0.91101 0,-1.9565 -3.78136,-0.93762 -6.44599,-2.05847 -2.66295,-1.09931 -3.65995,-3.80886 -3.65995,-10.28277 l 0,-2.05745"
         id="path3025"
         style="fill:#c49e60;fill-opacity:1;fill-rule:nonzero;stroke:none" /><path
         d="m 1044.3192,468.71042 c 0.8321,1.25666 1.7636,2.03685 2.6804,2.57266 0.929,0.48992 1.8877,0.73811 2.8172,0.73811 1.4106,0 2.764,-0.52617 3.7324,-1.46292 0.9581,-0.94368 1.6059,-2.19715 1.61,-3.98736 0,-1.32969 -0.3966,-3.00331 -1.4819,-4.93321 -1.2705,-2.28223 -3.4692,-4.37243 -6.2893,-5.80292 -1.2784,-0.69005 -2.7315,-1.23931 -4.2058,-1.61094 -0.4946,2.34322 -0.7572,4.58026 -0.7572,6.55278 -0.014,3.5406 0.7783,6.29261 1.8942,7.9338 z m 73.9481,161.81231 c -17.1427,-0.65644 -30.99,-8.11261 -40.4718,-17.53647 -4.7544,-4.70292 -8.4578,-9.89482 -10.9875,-15.03632 -2.5184,-5.10805 -3.8944,-10.20903 -3.8985,-14.81083 0,-2.24591 0.3319,-4.37982 1.1126,-6.37435 0.3829,-0.95776 1.307,-1.70287 2.3679,-1.81899 1.0776,-0.11449 2.1553,0.41354 2.7349,1.35123 1.7471,2.64849 3.7166,4.47393 5.7181,5.59494 1.9852,1.20883 4.0094,1.71493 6.0412,1.71493 3.316,0 6.6613,-1.42116 9.3099,-4.05129 2.6465,-2.6243 4.5606,-6.41628 5.0032,-11.06062 0.088,-0.85984 0.1314,-1.76245 0.1314,-2.56403 0,-4.74631 -1.533,-8.9523 -3.8816,-12.18241 -7.7594,-10.33596 -23.8296,-8.27773 -30.1921,-4.99356 -7.5184,3.84051 -16.2746,10.47752 -18.4425,25.23313 -1.3851,9.45319 -0.8094,19.77687 2.1679,28.90557 3.0385,9.3247 8.7771,17.46033 15.6024,24.44641 3.7508,3.83561 8.3722,7.06455 12.9056,9.8672 7.1506,4.44795 14.8016,7.93372 22.8846,10.29389 9.4543,2.69756 25.642,5.36876 36.5264,5.5643 -4.2635,-5.82439 -7.9806,-12.01418 -11.1744,-18.48273 -0.6709,-1.29912 -1.2786,-2.67166 -1.8977,-4.05152 -0.5121,0 -1.0741,-0.0155 -1.56,-0.0155 z m 49.8512,44.07698 c 1.847,-0.0233 2.8646,-0.52554 3.4984,-1.12467 0.5912,-0.57112 0.9453,-1.37231 0.9844,-2.42137 0,-2.06633 -1.5567,-5.10013 -5.8467,-6.83286 -3.5815,-1.41929 -8.2233,-2.48484 -13.6308,-3.28113 -0.5948,-0.0811 -1.2091,-0.17524 -1.8346,-0.26056 1.0062,2.13936 4.2691,8.45826 11.2819,12.45635 1.974,1.16176 4.2469,1.46424 5.5474,1.46424 z m -12.8337,-155.74518 c -0.056,0.6433 -0.075,1.32464 -0.075,1.97206 0,5.2962 1.4057,9.36888 3.2753,11.99458 0.925,1.32035 1.9778,2.27336 3.0221,2.8581 1.0388,0.60169 2.0704,0.89016 3.0552,0.89016 1.2479,0 2.5096,-0.43353 3.8593,-1.5449 0.6391,-0.53386 1.061,-1.14675 1.3852,-1.82863 0.2809,-0.73718 0.4602,-1.50438 0.4602,-2.44137 0.016,-2.94 -1.8116,-6.99237 -5.6204,-10.33301 -2.2661,-1.98605 -5.1638,-3.64731 -8.6575,-4.78699 -0.4341,1.16239 -0.6635,2.2722 -0.7077,3.22 z m -15.5131,53.2882 c 4.9468,9.61629 14.329,20.07538 25.8335,20.93203 6.0879,0.4298 11.6528,-0.8043 17.2461,-3.26675 8.4875,-3.77953 13.7321,-10.67834 16.4346,-19.43254 3.1062,-10.05239 3.7714,-20.57658 2.3378,-30.98169 -1.28,-9.555 -4.6991,-18.86889 -11.1579,-26.13831 -5.4097,-6.07608 -12.9828,-12.69264 -21.7466,-9.99196 -4.0086,1.19381 -7.3154,3.78793 -9.6463,6.80385 -0.1267,0.10437 -0.2096,0.26141 -0.3075,0.39301 3.8057,1.38032 7.0778,3.32484 9.6934,5.65032 4.8104,4.20521 7.5501,9.50219 7.5945,14.64384 0,1.58893 -0.2914,3.26037 -0.9345,4.76094 -0.6445,1.47046 -1.6543,2.81765 -2.9539,3.92031 -2.2235,1.95331 -4.9203,2.94949 -7.5992,2.92926 -2.1087,0 -4.154,-0.60223 -5.9828,-1.66218 -2.7486,-1.64057 -5.0265,-4.27739 -6.6367,-7.6188 -1.6077,-3.39049 -2.5191,-7.54562 -2.5191,-12.25747 0,-0.71462 0.031,-1.54692 0.068,-2.39112 0.094,-1.31569 0.3667,-2.73833 0.8139,-4.13 -0.8139,-0.0754 -1.6394,-0.15043 -2.4871,-0.18947 -1.5337,-0.0918 -3.2594,-0.0918 -5.2037,-0.0918 -3.4627,0 -7.5413,0.0918 -12.0234,0.28125 1.8589,12.2129 2.6254,24.54075 3.0492,36.94654 1.4699,8.60316 3.2106,15.21092 6.1374,20.89072 z m -44.1774,-119.9898 c -2.4192,-1.20065 -4.8192,-1.70006 -6.9844,-1.70006 -2.995,-0.056 -5.6549,0.95293 -7.402,2.11042 -0.8505,0.63218 -1.5021,1.42123 -1.9884,2.41267 -0.4682,0.99096 -0.7445,2.17544 -0.7291,3.47386 -0.029,2.58394 1.0645,5.42866 3.3575,7.60146 2.3297,2.22296 5.9065,3.9018 11.3504,3.9018 3.9878,0.0233 8.8539,-1.17779 14.35,-3.21728 0.1228,-0.056 0.2683,-0.10414 0.3931,-0.16489 -1.5364,-3.29498 -3.1972,-5.93087 -4.8756,-8.09939 -2.4626,-3.08879 -5.0141,-5.09872 -7.4715,-6.31859 z m 122.7152,220.65665 c 0.023,-3.95796 -1.1503,-7.30411 -2.8137,-9.50102 -0.8318,-1.15438 -1.782,-1.97704 -2.762,-2.50064 -0.973,-0.57065 -1.9825,-0.82296 -3.0611,-0.8638 -1.052,0 -2.1728,0.29315 -3.3954,0.91444 -0.776,0.44457 -1.2835,0.94142 -1.6651,1.58417 -0.354,0.66516 -0.5567,1.50897 -0.5567,2.45584 0,1.8487 0.8292,4.03596 2.6052,5.73027 1.8038,1.66212 4.5166,2.95245 8.4823,2.98193 0.3122,0 0.6268,-0.0467 0.9762,-0.0467 0.7589,-0.0233 1.4572,-0.14964 2.1826,-0.30232 0,-0.16637 0.015,-0.32348 0.015,-0.46861 z m 38.064,-12.26159 c -0.9656,1.28753 -2.7885,1.52654 -4.0719,0.54654 -1.2616,-0.94181 -1.513,-2.79253 -0.5413,-4.04957 20.4647,-26.80767 32.6407,-60.3008 32.6407,-96.6574 0,-44.02604 -17.8474,-83.88847 -46.6963,-112.73835 -28.8755,-28.83191 -68.7134,-46.69762 -112.759,-46.69762 -29.5067,0 -50.0504,9.92771 -63.3407,22.39541 -6.6376,6.22946 -11.443,13.11466 -14.6054,19.68859 -0.8901,1.89132 -1.6346,3.7793 -2.2745,5.60894 1.8869,0.47958 3.6851,1.14411 5.3589,2.05513 3.6526,1.86363 6.7067,4.6529 8.651,8.10444 1.4894,2.67898 2.2063,5.32521 2.2063,7.76681 0.021,3.28362 -1.313,6.17781 -3.3999,8.18183 -2.0717,1.97626 -4.8497,3.04368 -7.7246,3.04368 -1.8882,0 -3.819,-0.47506 -5.5953,-1.42193 -1.7965,-1.00015 -3.4123,-2.50141 -4.7207,-4.42571 -2.0021,-3.02151 -2.845,-6.8775 -2.8594,-11.17216 0,-2.3051 0.255,-4.73379 0.745,-7.27362 -3.5611,0.1148 -7.1693,1.0829 -10.4163,3.17878 -3.3488,2.23339 -6.3658,5.69232 -8.5261,10.90771 -1.346,3.25974 -1.9857,6.56133 -1.9857,9.94785 0,8.45515 4.146,17.11539 11.5641,23.65993 7.4609,6.54095 18.138,10.94644 31.125,10.97747 0.2089,0 0.3658,0 0.5449,0 13.676,-0.15975 29.5055,-1.12062 44.3504,-2.07588 2.0431,-0.11613 4.06,-0.28172 6.0731,-0.42685 0.1461,-3.87325 0.2354,-7.75048 0.3039,-11.64598 0.075,-8.52444 0.015,-17.22801 -1.1168,-25.74522 -5.7212,2.05652 -11.0821,3.42969 -16.1046,3.45878 -6.651,0.049 -11.8737,-2.15989 -15.3348,-5.49103 -3.4755,-3.29273 -5.1685,-7.66563 -5.1685,-11.79874 0,-2.06469 0.4138,-4.13435 1.2834,-5.94362 0.8899,-1.87141 2.2256,-3.48476 3.9893,-4.70167 2.7473,-1.89 6.4549,-3.13771 10.6422,-3.15863 3.0582,0 6.3392,0.69456 9.5875,2.31863 3.2575,1.68 6.4752,4.2175 9.4107,7.91957 2.0448,2.62134 3.9769,5.75594 5.7138,9.55718 6.8512,-2.87506 14.4511,-6.61718 22.5917,-10.31621 10.5317,-4.7978 21.9738,-9.53097 34.0519,-12.33416 3.1185,-0.72901 6.0434,-1.07808 8.7624,-1.07808 7.7069,-0.0568 13.8991,2.80444 17.9928,6.97543 4.1129,4.16671 6.169,9.64086 6.169,14.93302 0,3.88609 -1.0814,7.72878 -3.4297,10.85599 -2.3259,3.15801 -5.8966,5.53466 -10.4037,6.45726 -1.6541,0.35584 -3.1874,0.54274 -4.6449,0.54274 -3.0931,0 -5.73,-0.82274 -7.7501,-2.14294 -1.534,-0.96281 -2.6886,-2.16875 -3.5773,-3.41289 -1.3296,-1.83633 -2.0167,-3.72726 -2.3926,-5.17214 -0.4138,-1.47506 -0.4987,-2.47061 -0.507,-2.59871 -0.1146,-1.59639 1.0485,-2.99865 2.6595,-3.16633 1.581,-0.0936 2.9832,1.08702 3.1234,2.70301 0,0.12226 0.2722,2.39726 1.4785,4.30546 0.5783,1.01897 1.3667,1.8921 2.4292,2.52747 1.0977,0.66057 2.4704,1.13828 4.5364,1.13828 1.0093,0 2.1608,-0.11301 3.4174,-0.39301 3.2796,-0.68577 5.4742,-2.21177 7.0004,-4.25624 1.4735,-2.02735 2.283,-4.60296 2.283,-7.38795 0,-3.77401 -1.5036,-7.84 -4.5287,-10.8696 -3.0288,-3.07674 -7.4781,-5.22644 -13.8556,-5.23476 -2.2418,0 -4.7256,0.29797 -7.4432,0.90184 -15.2927,3.58345 -29.9361,10.48988 -43.1227,16.71055 -4.1033,1.90027 -8.0566,3.68659 -11.887,5.34785 1.8308,3.0555 3.4004,6.29828 4.7611,9.51471 4.0327,9.2967 6.6917,19.13901 8.5282,29.10024 0.054,0.16645 0.054,0.31026 0.088,0.46877 4.7835,-0.20541 9.1728,-0.37458 12.9567,-0.37458 2.0126,0 3.8361,0.0521 5.5016,0.16917 1.6435,0.0552 3.212,0.25581 4.7322,0.50726 0.4864,-0.79185 1.0453,-1.58775 1.6515,-2.36965 2.9548,-3.79984 7.2035,-7.14436 12.504,-8.77855 9.292,-2.86587 20.9371,-1.68871 29.8469,1.88137 8.9192,3.57521 16.3689,10.20102 21.5591,18.2182 11.0309,16.97212 12.6182,39.2077 5.8535,58.01468 -5.1641,14.40071 -16.0295,26.38199 -31.3735,29.69213 -7.2891,1.55921 -14.8399,0.77988 -22.0272,-1.18502 -5.0687,-1.40179 -9.962,-3.39485 -14.4298,-6.13402 -8.6934,-5.44523 -17.1123,-14.28343 -21.7985,-23.39237 -0.1818,-0.35366 -0.3541,-0.75701 -0.5348,-1.09861 0.1652,11.11079 0.3172,22.20213 1.9755,33.2976 0.8775,6.04878 2.0703,12.08604 3.4937,18.08201 10.6093,0.0576 21.9892,0.0762 32.8619,0.35684 9.3492,0.25185 18.3518,0.69993 26.1953,1.50897 7.8399,0.86497 14.5297,2.04649 19.4734,4.07299 6.7046,2.73202 11.5662,6.45937 14.7283,10.80971 3.1772,4.32048 4.588,9.15227 4.588,13.83597 0,5.97955 -2.284,11.71092 -6.003,16.0363 -2.1308,2.47201 -4.7419,4.49462 -7.7111,5.80385 -1.3259,7.73586 -5.9112,16.17288 -15.0454,23.62874 -10.022,8.28737 -22.1724,14.40522 -36.1903,18.4233 -14.0558,4.06031 -29.9486,6.03283 -47.5147,6.03283 -91.2567,0 -165.22654,-73.95547 -165.22654,-165.21244 -0.0187,-38.90997 13.45159,-74.66908 35.94632,-102.95398 0.98934,-1.22811 2.82559,-1.4336 4.07836,-0.40631 1.23686,0.98373 1.47456,2.76943 0.46526,4.01722 -21.73009,27.27721 -34.71346,61.77243 -34.71346,99.34307 0,44.04788 17.85754,83.87081 46.71546,112.72465 28.8579,28.88286 68.6964,46.71232 112.7346,46.71232 17.1217,0 32.5035,-1.92927 45.8897,-5.81272 13.409,-3.86454 24.8328,-9.65168 34.1507,-17.30431 7.0311,-5.82229 10.7592,-11.90023 12.3777,-17.43397 -0.3294,0.0638 -0.631,0.0762 -0.9332,0.0919 -0.4338,0.0599 -0.8609,0.0599 -1.2877,0.0599 -5.2776,0 -9.5726,-1.84629 -12.4703,-4.61402 -2.902,-2.7832 -4.4395,-6.38711 -4.4395,-9.90686 0,-1.84092 0.4175,-3.59474 1.3288,-5.25755 0.8779,-1.61956 2.2707,-2.99965 4.0338,-3.90343 1.9822,-1.03872 4.0486,-1.55828 6.0769,-1.55828 2.0881,0 4.0989,0.56195 5.8667,1.55828 2.6757,1.49209 4.8156,3.88352 6.2719,6.83426 1.2023,2.36063 1.9531,5.13006 2.1822,8.12995 1.1006,-0.80111 2.1104,-1.71259 2.9992,-2.74034 2.8677,-3.33651 4.6427,-7.78774 4.6236,-12.28586 0,-3.52045 -1.0283,-7.09512 -3.4685,-10.41802 -2.4343,-3.35362 -6.3365,-6.44646 -12.2373,-8.83727 -4.0095,-1.64772 -10.3401,-2.84573 -17.9027,-3.69716 -11.3824,-1.21559 -25.6105,-1.5785 -39.8506,-1.69253 -5.7728,-0.0943 -11.5546,-0.0943 -17.1631,-0.15734 0.6514,2.48407 1.3613,4.94293 2.0673,7.43369 1.6396,5.44646 3.43,10.8794 5.5638,16.20943 1.8275,0.22486 3.61,0.43392 5.3384,0.69005 5.6456,0.82172 10.6863,1.91271 14.9432,3.62942 6.0459,2.40209 9.4503,7.35 9.4577,12.21935 0.023,2.42107 -0.8815,4.87107 -2.7517,6.59634 -1.8233,1.80584 -4.4858,2.78584 -7.4943,2.75185 -2.1829,0 -4.6532,-0.37551 -7.2541,-1.53712 -11.8117,-5.28453 -20.725,-16.76337 -22.9911,-19.57472 -24.8911,-0.62635 -45.0785,-4.5927 -57.3547,-8.10452 -19.7818,-5.67117 -33.8418,-13.1558 -42.3723,-20.95793 -15.343,-14.11993 -23.881,-32.19424 -21.3336,-52.65252 1.9261,-15.56045 9.9191,-30.4143 24.3666,-37.58028 6.9674,-3.4895 14.8357,-4.94324 22.6422,-4.59713 5.3211,0.22672 10.9201,0.88332 15.9691,2.50079 4.4342,1.41081 8.7119,3.90763 12.1244,7.07295 1.75,1.69152 3.5876,3.62725 4.8611,5.67109 2.754,4.31193 4.3523,9.51363 4.3485,15.288 0,1.01741 -0.059,2.06944 -0.1471,3.0842 -0.5663,5.96105 -3.0809,11.04686 -6.6999,14.64385 -3.6226,3.57536 -8.3851,5.7435 -13.3935,5.7435 -3.0157,0 -6.1198,-0.79785 -8.9599,-2.48446 -1.1026,-0.64338 -2.1423,-1.44355 -3.1563,-2.29475 0.2267,3.11702 1.3114,6.8754 3.2472,10.76102 3.3354,6.78354 9.1464,13.95053 17.0373,19.45502 7.5834,5.33758 17.1164,9.12606 28.254,9.78328 -5.109,-12.94129 -8.2074,-26.62932 -8.8966,-40.62178 -0.9259,-18.74335 -0.1586,-37.4479 0.8392,-56.21583 0.2214,-4.05238 0.4142,-8.15601 0.6271,-12.24565 -1.8113,0.0946 -3.6426,0.20876 -5.4544,0.30334 -14.8399,0.98256 -30.7832,1.97065 -44.6649,2.0965 -0.1998,0 -0.3918,0 -0.6094,0 -14.3028,0 -26.4258,-4.93656 -34.9417,-12.43021 -8.5259,-7.42973 -13.5291,-17.5952 -13.5291,-27.97084 -0.01,-4.12385 0.777,-8.21605 2.4003,-12.13076 2.5422,-6.16926 6.3433,-10.65517 10.7359,-13.55216 4.3626,-2.88921 9.2801,-4.13373 14.0054,-4.13373 0.3697,0 0.7288,0.0155 1.1042,0.0544 0.7622,-2.40271 1.6994,-4.81794 2.8726,-7.24259 5.1579,-10.84409 14.3604,-22.2068 28.08,-30.83033 13.7275,-8.65301 31.98,-14.56303 55.0708,-14.56303 91.2603,0 165.2472,73.97778 165.2472,165.25833 0,37.6481 -12.6098,72.37743 -33.8195,100.16012"
         id="path3027"
         style="fill:#c49e60;fill-opacity:1;fill-rule:nonzero;stroke:none" /></g></g></svg>